<svg width="37" height="37" viewBox="0 0 37 37" fill="none" xmlns="http://www.w3.org/2000/svg">
<path d="M31.2188 17.3438H5.78125C5.0875 17.3438 4.625 16.8813 4.625 16.1875V2.3125C4.625 1.61875 5.0875 1.15625 5.78125 1.15625H31.2188C31.9125 1.15625 32.375 1.61875 32.375 2.3125V16.1875C32.375 16.8813 31.9125 17.3438 31.2188 17.3438ZM6.9375 15.0312H30.0625V3.46875H6.9375V15.0312Z" fill="#555151"/>
<path d="M18.5 13.875C16.5344 13.875 15.0312 11.7938 15.0312 9.25C15.0312 6.70625 16.5344 4.625 18.5 4.625C20.4656 4.625 21.9688 6.70625 21.9688 9.25C21.9688 11.7938 20.4656 13.875 18.5 13.875Z" fill="#555151"/>
<path d="M34.5721 19.0781C34.3408 18.7312 33.9939 18.5 33.5314 18.5C30.9877 18.5 28.5596 19.6562 27.0564 21.7375L26.0158 23.125C24.7439 24.6281 22.7783 25.4375 20.8127 25.4375H17.3439C16.6502 25.4375 16.1877 24.975 16.1877 24.2812C16.1877 23.5875 16.6502 23.125 17.3439 23.125H19.5408C21.3908 23.125 23.1252 21.6219 23.1252 19.7719V19.6562C23.1252 19.0781 22.5471 18.5 21.9689 18.5H14.9158C10.7533 18.5 7.4002 20.35 5.5502 23.3563L2.42832 28.2125C2.19707 28.5594 2.19707 29.0219 2.42832 29.3687L5.89707 35.15C6.0127 35.3813 6.35957 35.6125 6.59082 35.7281C6.70645 35.7281 6.70645 35.7281 6.82207 35.7281C7.05332 35.7281 7.28457 35.6125 7.51582 35.4969C11.9096 32.6063 16.9971 31.1031 22.2002 31.1031C26.0158 31.1031 29.4846 29.0219 31.3346 25.6688L34.4564 20.1187C34.6877 19.8875 34.6877 19.425 34.5721 19.0781Z" fill="#555151"/>
<path d="M10.4062 2.3125H9.25H5.78125V5.78125V6.9375V8.09375C9.01875 8.09375 11.5625 5.55 11.5625 2.3125H10.4062Z" fill="#555151"/>
<path d="M5.78125 11.5625V12.7188V16.1875H9.25H10.4062H11.5625C11.5625 12.95 9.01875 10.4062 5.78125 10.4062V11.5625Z" fill="#555151"/>
<path d="M26.5938 16.1875H27.75H31.2188V12.7188V11.5625V10.4062C27.9813 10.4062 25.4375 12.95 25.4375 16.1875H26.5938Z" fill="#555151"/>
<path d="M31.2188 6.9375V5.78125V2.3125H27.75H26.5938H25.4375C25.4375 5.55 27.9813 8.09375 31.2188 8.09375V6.9375Z" fill="#555151"/>
</svg>
