<svg width="150" height="117" viewBox="0 0 150 117" fill="none" xmlns="http://www.w3.org/2000/svg">
<ellipse cx="77.4648" cy="63.3804" rx="52.8169" ry="52.8169" fill="#E5E2FF"/>
<ellipse cx="54.2252" cy="3.52113" rx="3.52113" ry="3.52113" fill="#3629B7"/>
<ellipse cx="141.197" cy="24.2957" rx="8.80281" ry="8.80282" fill="#FF4267"/>
<ellipse cx="128.873" cy="95.7745" rx="3.52113" ry="3.52113" fill="#0890FE"/>
<ellipse cx="36.6194" cy="95.7747" rx="7.04225" ry="7.04225" fill="#FFAF2A"/>
<ellipse cx="3.52113" cy="49.2958" rx="3.52113" ry="3.52113" fill="#52D5BA"/>
<path d="M84.8854 58.6789C84.4504 58.6789 84.0793 58.3191 84.0793 57.8822V50.8667C84.0793 47.1919 81.1109 44.211 77.4516 44.211C73.7923 44.211 70.8239 47.2048 70.8239 50.8667V57.8822C70.8239 58.3191 70.4657 58.6789 70.0178 58.6789H65.5652C65.1302 58.6789 64.772 58.3191 64.772 57.8822V50.8667C64.772 43.8384 70.4657 38.1206 77.4644 38.1206C84.4632 38.1206 90.1568 43.8384 90.1568 50.8667V57.8822C90.1568 58.3191 89.7986 58.6789 89.3508 58.6789H84.8854Z" fill="#5655B9"/>
<path d="M77.4647 38.9172C84.0156 38.9172 89.3511 44.2752 89.3511 50.8539V57.8694H84.8985V50.8539C84.8985 46.7422 81.5718 43.3887 77.4647 43.3887C73.3704 43.3887 70.0309 46.7294 70.0309 50.8539V57.8694H65.5784V50.8539C65.5784 44.2752 70.901 38.9172 77.4647 38.9172ZM77.4647 37.324C70.0309 37.324 63.979 43.4015 63.979 50.8667V57.8822C63.979 58.7688 64.6955 59.4883 65.5784 59.4883H70.0309C70.9138 59.4883 71.6303 58.7688 71.6303 57.8822V50.8667C71.6303 47.6416 74.2404 45.0076 77.4647 45.0076C80.6762 45.0076 83.2991 47.6416 83.2991 50.8667V57.8822C83.2991 58.7688 84.0156 59.4883 84.8985 59.4883H89.3511C90.2339 59.4883 90.9504 58.7688 90.9504 57.8822V50.8667C90.9504 43.3887 84.8985 37.324 77.4647 37.324Z" fill="white"/>
<path d="M62.5972 87.9487C61.5224 87.9487 60.6523 87.0749 60.6523 85.9956V59.0258C60.6523 57.9465 61.5224 57.0728 62.5972 57.0728H92.3322C93.407 57.0728 94.2771 57.9465 94.2771 59.0258V85.9828C94.2771 87.0621 93.407 87.9358 92.3322 87.9358H62.5972V87.9487Z" fill="#5655B9"/>
<path d="M92.3321 57.8822C92.959 57.8822 93.4708 58.3962 93.4708 59.0386V85.9956C93.4708 86.6252 92.959 87.152 92.3321 87.152H62.597C61.9572 87.152 61.4582 86.6381 61.4582 85.9956V59.0258C61.4582 58.3962 61.97 57.8694 62.597 57.8694H92.3321V57.8822ZM92.3321 56.2761H62.597C61.0872 56.2761 59.8589 57.5096 59.8589 59.0258V85.9828C59.8589 87.499 61.0872 88.7325 62.597 88.7325H92.3321C93.8418 88.7325 95.0701 87.499 95.0701 85.9828V59.0258C95.0701 57.5096 93.8418 56.2761 92.3321 56.2761Z" fill="white"/>
<path d="M92.3324 57.8823H86.5236V79.1344C86.5236 79.764 86.0118 80.278 85.3721 80.278H61.4458V85.9829C61.4458 86.6125 61.9576 87.1393 62.5845 87.1393H92.3196C92.9466 87.1393 93.4584 86.6253 93.4584 85.9829V59.0259C93.4712 58.3963 92.9594 57.8823 92.3324 57.8823Z" fill="#5655B9"/>
<path d="M92.3324 57.8823H90.1573V82.3466C90.1573 82.9891 89.6455 83.4902 89.0058 83.4902H61.4458V85.9957C61.4458 86.6253 61.9576 87.1521 62.5845 87.1521H92.3196C92.9466 87.1521 93.4584 86.6382 93.4584 85.9957V59.0259C93.4712 58.3963 92.9594 57.8823 92.3324 57.8823Z" fill="#5655B9"/>
<path d="M76.3618 75.5366C76.3617 75.2779 76.2021 75.046 75.9604 74.9536C74.3795 74.3498 73.2651 72.8175 73.2651 71.0269C73.2651 68.7117 75.1484 66.8327 77.4517 66.8325C79.7668 66.8325 81.6382 68.7105 81.6382 71.0269C81.6382 72.8174 80.5248 74.3498 78.9438 74.9536C78.7021 75.0459 78.5426 75.2778 78.5425 75.5366V77.7983C78.5424 78.4068 78.0512 78.896 77.4517 78.896C76.8523 78.8958 76.3619 78.4067 76.3618 77.7983V75.5366Z" fill="#5655B9" stroke="white" stroke-width="1.2486" stroke-miterlimit="10" stroke-linecap="round" stroke-linejoin="round"/>
</svg>
